# AST/ASF file generated using VICON BodyLanguage
# -----------------------------------------------
:version 1.10
:name VICON
:units
  mass 1.0
  length 0.45
  angle deg
:documentation
   .ast/.asf automatically generated from VICON data using
   VICON BodyBuilder and BodyLanguage model FoxedUp or BRILLIANT.MOD
:root
   order TX TY TZ RX RY RZ
   axis XYZ
   position 0 0 0  
   orientation 0 0 0 
:bonedata
  begin
     id 1 
     name lhipjoint
     direction 0.630082 -0.636569 0.44472 
     length 2.82754 
     axis 0 0 0  XYZ
  end
  begin
     id 2 
     name lfemur
     direction 0.34202 -0.939693 0  
     length 7.26371  
     axis 0 0 20  XYZ
    dof rx ry rz
    limits (-160.0 20.0)
           (-70.0 70.0)
           (-60.0 70.0)
  end
  begin
     id 3 
     name ltibia
     direction 0.34202 -0.939693 0   
     length 7.88616   
     axis 0 0 20   XYZ
    dof rx
    limits (-10.0 170.0)
  end
  begin
     id 4 
     name lfoot
     direction 0.0603448 -0.165796 0.984312   
     length 1.77861   
     axis -90 7.62852e-016 20   XYZ
    dof rx rz
    limits (-45.0 90.0)
           (-70.0 20.0)
  end
  begin
     id 5 
     name ltoes
     direction 1.53577e-011 -4.21876e-011 1   
     length 0.902235   
     axis -90 7.62852e-016 20   XYZ
    dof rx
    limits (-90.0 20.0)
  end
  begin
     id 6 
     name rhipjoint
     direction -0.656778 -0.61817 0.431866   
     length 2.9117  
     axis 0 0 0  XYZ 
  end
  begin
     id 7 
     name rfemur
     direction -0.34202 -0.939693 0   
     length 6.81603   
     axis 0 0 -20   XYZ
    dof rx ry rz
    limits (-160.0 20.0)
           (-70.0 70.0)
           (-70.0 60.0)
  end
  begin
     id 8 
     name rtibia
     direction -0.34202 -0.939693 0   
     length 8.05997   
     axis 0 0 -20   XYZ
    dof rx
    limits (-10.0 170.0)
 end
 begin
     id 9 
     name rfoot
     direction -0.0862404 -0.236944 0.967688   
     length 1.84899  
     axis -90 -7.62852e-016 -20   XYZ
    dof rx rz
    limits (-45.0 90.0)
           (-20.0 70.0)
  end
  begin
     id 10 
     name rtoes
     direction -1.53561e-011 -4.21798e-011 1   
     length 0.931579   
     axis -90 -7.62852e-016 -20   XYZ
    dof rx
    limits (-90.0 20.0)
  end
  begin
     id 11 
     name lowerback
     direction -0.0110203 0.991769 -0.127564   
     length 2.05686   
     axis 0 0 0   XYZ
    dof rx ry rz
    limits (-20.0 45.0)
           (-30.0 30.0)
           (-30.0 30.0)
  end
  begin
     id 12 
     name upperback
     direction 0.0109719 0.99993 -0.00432479   
     length 2.06234   
     axis 0 0 0   XYZ
    dof rx ry rz
    limits (-20.0 45.0)
           (-30.0 30.0)
           (-30.0 30.0)
  end
  begin
     id 13 
     name thorax
     direction 0.0173308 0.998351 0.0547306   
     length 2.09856   
     axis 0 0 0   XYZ
    dof rx ry rz
    limits (-20.0 45.0)
           (-30.0 30.0)
           (-30.0 30.0)
  end
  begin
     id 14 
     name lowerneck
     direction -0.0311736 0.989033 0.144366   
     length 1.98151   
     axis 0 0 0   XYZ
    dof rx ry rz
    limits (-20.0 45.0)
           (-30.0 30.0)
           (-30.0 30.0)
  end
  begin
     id 15 
     name upperneck
     direction 0.0421057 0.975772 -0.214698   
     length 2.01457   
     axis 0 0 0   XYZ
    dof rx ry rz
    limits (-20.0 45.0)
           (-30.0 30.0)
           (-30.0 30.0)
  end
  begin
     id 16
     name head
     direction 0.0136911 0.995958 -0.0887718  
     length 2.03562  
     axis 0 0 0   XYZ
    dof rx ry rz
    limits (-20.0 45.0)
           (-30.0 30.0)
           (-30.0 30.0)
  end
  begin
     id 17 
     name lclavicle
     direction 0.915335 0.396201 0.0720134  
     length 4.16217  
     axis 0 0 0   XYZ
    dof ry rz
    limits (-20.0 10.0)
           (0.0 20.0)
  end
  begin
     id 18 
     name lhumerus
     direction 1 -4.48965e-011 6.383e-018   
     length 4.93042   
     axis -180 -30 -90   XYZ
    dof rx ry rz
    limits (-60.0 90.0)
           (-90.0 90.0)
           (-90.0 90.0)
  end
  begin
     id 19
     name lradius
     direction 1 -4.48972e-011 8.8689e-027   
     length 3.68177   
     axis -180 -30 -90   XYZ
    dof rx
    limits (-10.0 170.0)
  end
  begin
     id 20
     name lwrist
     direction 1 -4.48953e-011 1.17971e-026   
     length 1.84089   
     axis -7.69454e-015 90 90   XYZ
    dof ry
    limits (-180.0 0.0)
 end
  begin
     id 21 
     name lhand
     direction 1 -4.49027e-011 2.35802e-026   
     length 0.721479   
     axis -1.50533e-014 90 90   XYZ
    dof rx rz
    limits (-90.0 90.0)
           (-45.0 45.0)
  end
  begin
     id 22 
     name lfingers
     direction 1 -4.48915e-011 4.72027e-026   
     length 0.581675   
     axis -3.01059e-014 90 90   XYZ
    dof rx
    limits (0.0 90.0)
  end
  begin
     id 23
     name lthumb
     direction 0.707107 -6.34948e-011 0.707107   
     length 0.835172   
     axis -90 45 -5.12164e-014   XYZ
    dof rx rz
    limits (-45.0 45.0)
           (-45.0 45.0)
  end
  begin
     id 24 
     name rclavicle
     direction -0.882781 0.469197 0.0234974   
     length 3.95647  
     axis 0 0 0   XYZ 
    dof ry rz
    limits (-10.0 20.0)
           (-20.0 0.0)
  end
  begin
     id 25 
     name rhumerus
     direction -1 -4.48965e-011 -1.54906e-018  
     length 5.07905   
     axis -180 30 90   XYZ
    dof rx ry rz
    limits (-90.0 60.0)
           (-90.0 90.0)
           (-90.0 90.0)
  end
  begin
     id 26 
     name rradius
     direction -1 -4.48972e-011 5.47489e-027   
     length 3.54394   
     axis -180 30 90   XYZ
    dof rx
    limits (-10.0 170.0)
  end
  begin
     id 27 
     name rwrist
     direction -1 -4.48955e-011 1.17969e-026   
     length 1.77197   
     axis -7.69454e-015 -90 -90   XYZ
    dof ry
    limits (-180.0 0.0)
  end
  begin
     id 28
     name rhand
     direction -1 -4.48982e-011 2.35888e-026   
     length 0.681156   
     axis -1.50533e-014 -90 -90   XYZ
    dof rx rz
    limits (-90.0 90.0)
           (-45.0 45.0)
  end
  begin
     id 29
     name rfingers
     direction -1 -4.48955e-011 4.71877e-026   
     length 0.549165   
     axis -3.01059e-014 -90 -90   XYZ
    dof rx
    limits (0.0 90.0)
  end
  begin
     id 30
     name rthumb
     direction -0.707107 -6.3491e-011 0.707107   
     length 0.788495   
     axis -90 -45 5.12164e-014   XYZ
    dof rx rz
    limits (-45.0 45.0)
           (-45.0 45.0)
  end
:hierarchy
  begin
    root lhipjoint rhipjoint lowerback
    lhipjoint lfemur
    lfemur ltibia
    ltibia lfoot
    lfoot ltoes
    rhipjoint rfemur
    rfemur rtibia
    rtibia rfoot
    rfoot rtoes
    lowerback upperback
    upperback thorax
    thorax lowerneck lclavicle rclavicle
    lowerneck upperneck
    upperneck head
    lclavicle lhumerus
    lhumerus lradius
    lradius lwrist
    lwrist lhand lthumb
    lhand lfingers
    rclavicle rhumerus
    rhumerus rradius
    rradius rwrist
    rwrist rhand rthumb
    rhand rfingers
  end

#!OML:ASF H:\Bending\Project 1\Capture day 1\Session 1\Subject.ASF
:FULLY-SPECIFIED
:DEGREES
81
root -11.9966 17.244 -16.8907 -366.48 87.3834 -376.449
lowerback 28.2743 0.133844 1.73067
upperback 4.33951 1.17743 0.90774
thorax -10.7788 0.65321 -0.432677
lowerneck -22.5688 -4.65909 -6.42015
upperneck 21.8016 -5.58318 5.32103
head 11.1396 -2.36281 2.10892
rclavicle -3.18055e-015 -6.36111e-015
rhumerus -6.09662 11.8838 -83.6947
rradius 29.9389
rwrist 20.4188
rhand -22.4023 -18.2841
rfingers 7.12502
rthumb 4.02031 -48.2259
lclavicle -3.18055e-015 -6.36111e-015
lhumerus -5.61506 -6.42961 93.3664
lradius 33.8013
lwrist 28.2268
lhand -32.3661 8.76401
lfingers 7.12502
lthumb -5.60223 38.67
rfemur -31.617 -15.6543 16.7235
rtibia 40.6741
rfoot -20.6021 -4.33799
rtoes -4.07027
lfemur -35.7089 12.164 -15.5364
ltibia 46.4118
lfoot -19.1545 -6.80917
ltoes -30.817
82
root -12.0472 17.1228 -16.8771 -367.27 87.5505 -377.735
lowerback 29.1626 -0.0414557 1.56396
upperback 4.50689 0.952812 0.955274
thorax -11.0454 0.565342 -0.209403
lowerneck -22.5308 -4.47129 -6.35731
upperneck 21.1775 -5.3283 5.31283
head 10.8808 -2.25167 2.13242
rclavicle 6.55989e-015 6.75868e-015
rhumerus -4.34539 12.4603 -83.8427
rradius 29.8343
rwrist 20.1042
rhand -22.5974 -18.9363
rfingers 7.12502
rthumb 3.83186 -48.8816
lclavicle 6.55989e-015 6.75868e-015
lhumerus -3.91009 -6.39175 93.4341
lradius 33.4289
lwrist 28.2634
lhand -32.376 8.82155
lfingers 7.12502
lthumb -5.61174 38.7272
rfemur -33.9755 -16.7279 17.0567
rtibia 43.417
rfoot -21.3134 -3.50478
rtoes -4.39601
lfemur -37.8577 13.2024 -15.7833
ltibia 48.6875
lfoot -19.2464 -8.07784
ltoes -30.2199
83
root -12.0916 16.9927 -16.8631 -368.143 87.6526 -379.025
lowerback 30.0371 -0.174535 1.37139
upperback 4.69732 0.774264 1.00498
thorax -11.2714 0.502024 0.019178
lowerneck -22.5284 -4.31196 -6.2707
upperneck 20.5387 -5.11115 5.2727
head 10.6268 -2.15841 2.13317
rclavicle -3.77691e-015 0
rhumerus -2.54027 12.7216 -84.0098
rradius 29.6407
rwrist 19.9034
rhand -22.6906 -19.8076
rfingers 7.12502
rthumb 3.74192 -49.7545
lclavicle -3.77691e-015 0
lhumerus -2.16332 -6.11465 93.5355
lradius 32.949
lwrist 28.2997
lhand -32.1941 8.77624
lfingers 7.12502
lthumb -5.43615 38.6865
rfemur -36.247 -17.7473 17.3817
rtibia 46.1782
rfoot -22.094 -2.63683
rtoes -4.1428
lfemur -39.93 14.277 -16.032
ltibia 51.0189
lfoot -19.367 -9.33234
ltoes -29.5201
84
root -12.1299 16.8532 -16.8495 -369.485 87.7061 -380.671
lowerback 31.125 -0.272828 1.23885
upperback 4.48571 0.665525 1.05607
thorax -11.2322 0.46457 0.168783
lowerneck -22.5469 -4.21528 -6.20648
upperneck 19.8369 -4.97428 5.24621
head 10.3628 -2.10133 2.12876
rclavicle 6.55989e-015 -6.36111e-015
rhumerus -0.712588 12.6095 -84.1954
rradius 29.3569
rwrist 19.7877
rhand -22.676 -20.6577
rfingers 7.12502
rthumb 3.75596 -50.6044
lclavicle 6.55989e-015 -6.36111e-015
lhumerus -0.433411 -5.65692 93.7188
lradius 32.4479
lwrist 28.4115
lhand -31.841 8.63395
lfingers 7.12502
lthumb -5.09523 38.5527
rfemur -38.3912 -18.7303 17.7032
rtibia 48.9505
rfoot -22.8612 -1.78751
rtoes -3.60208
lfemur -41.8968 15.3401 -16.2481
ltibia 53.4183
lfoot -19.4919 -10.602
ltoes -28.4746
85
root -12.1633 16.7034 -16.8368 -371.018 87.7549 -382.401
lowerback 32.1534 -0.347846 1.17436
upperback 4.65156 0.604642 1.08399
thorax -11.4743 0.451406 0.250841
lowerneck -22.5574 -4.18795 -6.19709
upperneck 19.0447 -4.92131 5.25683
head 10.0756 -2.08249 2.133
rclavicle -6.75868e-015 8.94531e-015
rhumerus 1.07967 12.1884 -84.4093
rradius 29.0032
rwrist 19.6885
rhand -22.576 -21.2485
rfingers 7.12502
rthumb 3.85252 -51.1934
lclavicle -6.75868e-015 8.94531e-015
lhumerus 1.19771 -5.05842 94.0144
lradius 32.0236
lwrist 28.6639
lhand -31.4144 8.43725
lfingers 7.12502
lthumb -4.6833 38.3655
rfemur -40.4368 -19.7129 18.0086
rtibia 51.7586
rfoot -23.5571 -1.00853
rtoes -3.09236
lfemur -43.7857 16.3366 -16.4456
ltibia 55.9
lfoot -19.5782 -11.9049
ltoes -26.8206
86
root -12.1934 16.5418 -16.8253 -371.893 87.8516 -383.417
lowerback 33.2637 -0.426558 1.1671
upperback 4.7638 0.556025 1.08226
thorax -11.7983 0.440642 0.266532
lowerneck -22.5295 -4.21235 -6.2478
upperneck 18.1681 -4.92534 5.30029
head 9.76073 -2.09076 2.15018
rclavicle 1.25234e-014 2.22639e-014
rhumerus 2.7737 11.6065 -84.6631
rradius 28.6153
rwrist 19.5246
rhand -22.4215 -21.464
rfingers 7.12502
rthumb 4.00175 -51.4061
lclavicle 1.25234e-014 2.22639e-014
lhumerus 2.66296 -4.32994 94.4305
lradius 31.7434
lwrist 29.0708
lhand -31.0573 8.24122
lfingers 7.12502
lthumb -4.33849 38.1768
rfemur -42.4436 -20.7319 18.2765
rtibia 54.5652
rfoot -24.1152 -0.34337
rtoes -2.85362
lfemur -45.6462 17.2268 -16.6848
ltibia 58.3973
lfoot -19.5501 -13.2075
ltoes -24.446
87
root -12.2216 16.3667 -16.8149 -370.92 88.0327 -382.589
lowerback 34.3935 -0.522124 1.16752
upperback 4.79958 0.481369 1.04472
thorax -12.2046 0.415376 0.251361
lowerneck -22.4518 -4.26064 -6.33931
upperneck 17.2452 -4.95031 5.35478
head 9.42707 -2.11039 2.1756
rclavicle 8.15017e-015 1.61016e-014
rhumerus 4.33316 11.0252 -84.9584
rradius 28.236
rwrist 19.2313
rhand -22.232 -21.3602
rfingers 7.12502
rthumb 4.18476 -51.2988
lclavicle 8.15017e-015 1.61016e-014
lhumerus 3.95293 -3.46103 94.9602
lradius 31.6124
lwrist 29.5743
lhand -30.911 8.08087
lfingers 7.12502
lthumb -4.19721 38.0193
rfemur -44.563 -21.8081 18.4875
rtibia 57.5094
rfoot -24.6103 0.186928
rtoes -2.97457
lfemur -47.5943 18.0004 -17.0412
ltibia 60.991
lfoot -19.4768 -14.4684
ltoes -21.5111
88
root -12.2493 16.2105 -16.8056 -366.586 88.2932 -378.436
lowerback 35.453 -0.632314 1.12828
upperback 4.78026 0.362813 0.972292
thorax -12.636 0.369923 0.239837
lowerneck -22.3495 -4.31108 -6.44159
upperneck 16.3321 -4.97166 5.39757
head 9.09597 -2.12958 2.20031
rclavicle 4.77083e-015 -3.97569e-016
rhumerus 5.77254 10.5505 -85.2825
rradius 27.9062
rwrist 18.7857
rhand -22.0104 -21.1151
rfingers 7.12502
rthumb 4.39876 -51.0494
lclavicle 4.77083e-015 -3.97569e-016
lhumerus 5.13779 -2.43971 95.5952
lradius 31.5709
lwrist 30.0593
lhand -31.0688 7.95486
lfingers 7.12502
lthumb -4.34959 37.8902
rfemur -46.6964 -22.9206 18.644
rtibia 60.4542
rfoot -25.0909 0.586013
rtoes -3.35234
lfemur -49.506 18.6642 -17.5708
ltibia 63.5185
lfoot -19.4506 -15.6145
ltoes -18.4226
89
root -12.2729 16.0088 -16.7973 -357.097 88.5712 -369.125
lowerback 36.4954 -0.74741 1.04053
upperback 4.67131 0.210535 0.863903
thorax -13.04 0.311153 0.238235
lowerneck -22.2672 -4.35656 -6.5281
upperneck 15.4977 -4.9869 5.42051
head 8.79735 -2.14527 2.21737
rclavicle 1.63003e-014 3.20043e-014
rhumerus 7.12025 10.1928 -85.628
rradius 27.6589
rwrist 18.2226
rhand -21.7528 -20.9172
rfingers 7.12502
rthumb 4.64751 -50.8462
lclavicle 1.63003e-014 3.20043e-014
lhumerus 6.312 -1.28215 96.329
lradius 31.5258
lwrist 30.3995
lhand -31.5514 7.83739
lfingers 7.12502
lthumb -4.81554 37.7627
rfemur -49.0465 -24.069 18.6986
rtibia 63.6409
rfoot -25.5917 0.964027
rtoes -3.71956
lfemur -51.5741 19.294 -18.2179
ltibia 66.2067
lfoot -19.536 -16.6514
ltoes -15.6019
90
root -12.2916 15.7965 -16.7905 -341.955 88.7653 -354.098
lowerback 37.226 -0.840313 0.895035
upperback 4.76453 0.0605486 0.756585
thorax -13.2048 0.260552 0.260936
lowerneck -22.3104 -4.41049 -6.59816
upperneck 14.7488 -5.00942 5.42745
head 8.55125 -2.16175 2.22491
rclavicle -1.80894e-014 -1.64991e-014
rhumerus 8.53632 9.8958 -85.9456
rradius 27.4999
rwrist 17.6069
rhand -21.4629 -20.8725
rfingers 7.12502
rthumb 4.9274 -50.7952
lclavicle -1.80894e-014 -1.64991e-014
lhumerus 7.68151 -0.0434993 97.1839
lradius 31.3799
lwrist 30.5011
lhand -32.3145 7.70343
lfingers 7.12502
lthumb -5.55236 37.6107
rfemur -51.3402 -25.1947 18.665
rtibia 66.8427
rfoot -26.1294 1.40852
rtoes -3.75228
lfemur -53.5377 19.9291 -18.9098
ltibia 68.869
lfoot -19.7946 -17.6004
ltoes -13.2164
91
root -12.3024 15.581 -16.7851 -325.778 88.807 -337.733
lowerback 37.8973 -0.904929 0.723669
upperback 5.0886 -0.0451273 0.661674
thorax -13.0749 0.240792 0.290701
lowerneck -22.5501 -4.4904 -6.66142
upperneck 14.0762 -5.05848 5.4375
head 8.36705 -2.18562 2.22735
rclavicle 4.77083e-015 1.98785e-015
rhumerus 10.1287 9.56004 -86.2251
rradius 27.4113
rwrist 17.0223
rhand -21.1719 -20.9718
rfingers 7.12502
rthumb 5.20836 -50.8878
lclavicle 4.77083e-015 1.98785e-015
lhumerus 9.3613 1.1708 98.1678
lradius 31.0812
lwrist 30.3369
lhand -33.2781 7.54872
lfingers 7.12502
lthumb -6.48273 37.4295
rfemur -53.1881 -26.2624 18.4534
rtibia 70.0336
rfoot -26.799 2.02796
rtoes -3.23261
lfemur -55.0465 20.631 -19.4617
ltibia 71.5278
lfoot -20.2887 -18.5975
ltoes -11.0534
